<?xml version="1.0" standalone="no"?>
<!DOCTYPE svg PUBLIC "-//W3C//DTD SVG 20010904//EN"
 "http://www.w3.org/TR/2001/REC-SVG-20010904/DTD/svg10.dtd">
<svg version="1.0" xmlns="http://www.w3.org/2000/svg"
 width="256.000000pt" height="256.000000pt" viewBox="0 0 256.000000 256.000000"
 preserveAspectRatio="xMidYMid meet">
<metadata>
Created by potrace 1.14, written by Peter Selinger 2001-2017
</metadata>
<g transform="translate(0.000000,256.000000) scale(0.100000,-0.100000)"
fill="#000000" stroke="none">
<path d="M0 1280 l0 -1280 1280 0 1280 0 0 1280 0 1280 -1280 0 -1280 0 0
-1280z m2067 858 c0 -47 17 -88 141 -356 154 -330 171 -373 121 -297 -18 28
-33 52 -34 55 -1 3 -15 28 -32 55 -18 28 -48 75 -67 105 -23 37 -42 56 -56 57
-34 3 -80 27 -86 45 -7 23 -31 41 -44 33 -9 -5 -9 -10 -1 -18 6 -6 11 -52 11
-109 0 -54 3 -98 8 -98 20 1 34 21 35 54 1 20 4 33 8 29 10 -12 68 -147 64
-151 -2 -2 -25 8 -53 22 -47 24 -50 24 -66 8 -8 -10 -47 -87 -86 -172 -39 -85
-84 -182 -99 -215 -50 -107 -267 -383 -397 -507 -87 -83 -150 -109 -303 -124
-78 -7 -149 -9 -190 -3 -37 4 -83 4 -103 0 -27 -6 -42 -5 -60 8 -59 39 -180
146 -215 190 -21 27 -72 86 -113 133 -44 50 -93 119 -119 169 -24 46 -59 113
-77 148 -20 36 -34 78 -34 98 l0 35 27 -34 c101 -124 204 -211 312 -262 64
-30 69 -31 206 -30 139 0 141 1 280 47 77 26 165 62 195 81 30 19 84 51 120
72 239 139 390 289 583 577 34 51 34 57 -1 57 -16 0 -57 14 -91 30 -61 30 -63
32 -59 64 3 25 0 32 -9 29 -19 -7 -16 -51 7 -102 31 -68 17 -59 -18 11 -42 87
-46 108 -24 143 28 43 244 164 313 174 3 1 6 -23 6 -51z"/>
</g>
</svg>
